<?xml version="1.0" encoding="utf-8"?>
<!-- Generator: Adobe Illustrator 24.0.0, SVG Export Plug-In . SVG Version: 6.00 Build 0)  -->
<svg version="1.1" id="Layer_1" xmlns="http://www.w3.org/2000/svg" xmlns:xlink="http://www.w3.org/1999/xlink" x="0px" y="0px"
	 viewBox="0 0 72 59.8" style="enable-background:new 0 0 72 59.8;" xml:space="preserve">
<style type="text/css">
	.st0{fill:#1F7099;}
</style>
<g>
	<path class="st0" d="M67.5,34.5h-63c-2.5,0-4.5-2-4.5-4.5s2-4.5,4.5-4.5h63c2.5,0,4.5,2,4.5,4.5S70,34.5,67.5,34.5z"/>
</g>
<g>
	<path class="st0" d="M42.2,59.7c-1.2,0-2.3-0.4-3.2-1.3c-1.8-1.8-1.8-4.6,0-6.4l22.1-22.1L39,7.8c-1.8-1.8-1.8-4.6,0-6.4
		c1.8-1.8,4.6-1.8,6.4,0l25.3,25.3c1.8,1.8,1.8,4.6,0,6.4L45.3,58.4C44.5,59.3,43.3,59.7,42.2,59.7z"/>
</g>
</svg>
