<?xml version="1.0" encoding="utf-8"?>
<!-- Generator: Adobe Illustrator 24.0.0, SVG Export Plug-In . SVG Version: 6.00 Build 0)  -->
<svg version="1.2" baseProfile="tiny" id="Layer_1" xmlns="http://www.w3.org/2000/svg" xmlns:xlink="http://www.w3.org/1999/xlink"
	 x="0px" y="0px" viewBox="0 0 72 59.4" xml:space="preserve">
<path fill="#1F709A" d="M71.6,31.4c0.1-0.2,0.2-0.5,0.2-0.7c0-0.1,0-0.1,0-0.2C72,30.3,72,30,72,29.7c0-0.3,0-0.6-0.1-0.9
	c0-0.1,0-0.1,0-0.2c-0.1-0.2-0.1-0.5-0.2-0.7c0,0,0,0,0-0.1c-0.2-0.5-0.5-1-0.9-1.4L45.5,1.3c-0.8-0.8-2-1.3-3.2-1.3
	c-1.2,0-2.3,0.5-3.2,1.3c-0.8,0.8-1.3,2-1.3,3.2c0,1.2,0.5,2.3,1.3,3.2l17.6,17.6H4.5c-2.5,0-4.5,2-4.5,4.5c0,2.5,2,4.5,4.5,4.5
	h52.2L39.1,51.8c-0.8,0.8-1.3,2-1.3,3.2c0,1.2,0.5,2.3,1.3,3.2c0.8,0.8,2,1.3,3.2,1.3c1.2,0,2.3-0.5,3.2-1.3l25.2-25.2
	C71.1,32.5,71.4,32,71.6,31.4C71.6,31.5,71.6,31.5,71.6,31.4z"/>
</svg>
