<?xml version="1.0" encoding="utf-8"?>
<!-- Generator: Adobe Illustrator 24.0.0, SVG Export Plug-In . SVG Version: 6.00 Build 0)  -->
<svg version="1.2" baseProfile="tiny"
	 id="Layer_1" xmlns:cc="http://creativecommons.org/ns#" xmlns:dc="http://purl.org/dc/elements/1.1/" xmlns:rdf="http://www.w3.org/1999/02/22-rdf-syntax-ns#"
	 xmlns="http://www.w3.org/2000/svg" xmlns:xlink="http://www.w3.org/1999/xlink" x="0px" y="0px" viewBox="0 0 72 72"
	 xml:space="preserve">
<g>
	<path fill="#FFFFFF" d="M36,6.5c9.6,0,10.8,0,14.5,0.2c3.5,0.2,5.4,0.7,6.7,1.2c1.7,0.7,2.9,1.4,4.1,2.7c1.3,1.3,2,2.5,2.7,4.1
		c0.5,1.3,1.1,3.2,1.2,6.7c0.2,3.8,0.2,4.9,0.2,14.5s0,10.8-0.2,14.5c-0.2,3.5-0.7,5.4-1.2,6.7c-0.7,1.7-1.4,2.9-2.7,4.1
		c-1.3,1.3-2.5,2-4.1,2.7c-1.3,0.5-3.2,1.1-6.7,1.2c-3.8,0.2-4.9,0.2-14.5,0.2s-10.8,0-14.5-0.2c-3.5-0.2-5.4-0.7-6.7-1.2
		c-1.7-0.7-2.9-1.4-4.1-2.7c-1.3-1.3-2-2.5-2.7-4.1c-0.5-1.3-1.1-3.2-1.2-6.7C6.5,46.8,6.5,45.6,6.5,36s0-10.8,0.2-14.5
		c0.2-3.5,0.7-5.4,1.2-6.7c0.7-1.7,1.4-2.9,2.7-4.1c1.3-1.3,2.5-2,4.1-2.7c1.3-0.5,3.2-1.1,6.7-1.2C25.2,6.5,26.4,6.5,36,6.5 M36,0
		c-9.8,0-11,0-14.8,0.2c-3.8,0.2-6.4,0.8-8.7,1.7C10.1,2.8,8,4,6,6c-2,2-3.2,4-4.2,6.4c-0.9,2.3-1.5,4.9-1.7,8.7C0,25,0,26.2,0,36
		c0,9.8,0,11,0.2,14.8c0.2,3.8,0.8,6.4,1.7,8.7C2.8,61.9,4,64,6,66c2,2,4,3.2,6.4,4.2c2.3,0.9,4.9,1.5,8.7,1.7C25,72,26.2,72,36,72
		s11,0,14.8-0.2c3.8-0.2,6.4-0.8,8.7-1.7C61.9,69.2,64,68,66,66c2-2,3.2-4,4.2-6.4c0.9-2.3,1.5-4.9,1.7-8.7C72,47,72,45.8,72,36
		s0-11-0.2-14.8c-0.2-3.8-0.8-6.4-1.7-8.7C69.2,10.1,68,8,66,6c-2-2-4-3.2-6.4-4.2c-2.3-0.9-4.9-1.5-8.7-1.7C47,0,45.8,0,36,0L36,0z
		"/>
	<path fill="#FFFFFF" d="M36,17.5c-10.2,0-18.5,8.3-18.5,18.5S25.8,54.5,36,54.5S54.5,46.2,54.5,36S46.2,17.5,36,17.5z M36,48
		c-6.6,0-12-5.4-12-12c0-6.6,5.4-12,12-12s12,5.4,12,12C48,42.6,42.6,48,36,48z"/>
	<circle fill="#FFFFFF" cx="55.2" cy="16.8" r="4.3"/>
</g>
</svg>
