<?xml version="1.0" encoding="utf-8"?>
<!-- Generator: Adobe Illustrator 24.0.0, SVG Export Plug-In . SVG Version: 6.00 Build 0)  -->
<svg version="1.2" baseProfile="tiny" id="Layer_1" xmlns="http://www.w3.org/2000/svg" xmlns:xlink="http://www.w3.org/1999/xlink"
	 x="0px" y="0px" viewBox="0 0 216 45.9" xml:space="preserve">
<g>
	<g>
		<path fill="#FFFFFF" d="M0,26.9l3.1-0.5V2.1l-3-0.3V0h9.6v1.8l-3,0.3v11.4h14.1V2.1l-3-0.3V0h9.5v1.8l-3,0.3v24.3l3.2,0.5v1.6
			h-9.9v-1.6l3.2-0.5V15.7H6.7v10.7l3.2,0.5v1.6H0V26.9z"/>
		<path fill="#FFFFFF" d="M30.3,22.6c0.1-0.9,0.4-1.6,0.8-2.2c0.5-0.6,1-1.2,1.7-1.7s1.5-0.9,2.3-1.2s1.7-0.5,2.5-0.7
			s1.7-0.3,2.4-0.4c0.8-0.1,1.5-0.1,2-0.1v-1.6c0-1-0.1-1.8-0.4-2.4s-0.6-1.1-1.1-1.4s-1-0.6-1.6-0.7c-0.6-0.1-1.3-0.2-2-0.2
			c-0.3,0-0.8,0-1.2,0.1c-0.4,0.1-0.9,0.2-1.4,0.3c-0.5,0.1-0.9,0.3-1.4,0.4s-0.9,0.4-1.4,0.6l-0.7-1.6c0.5-0.4,1-0.7,1.7-1
			c0.7-0.3,1.3-0.5,2-0.7c0.7-0.2,1.4-0.3,2-0.4c0.7-0.1,1.2-0.1,1.7-0.1c1,0,1.9,0.1,2.8,0.3s1.6,0.6,2.3,1.1
			c0.7,0.5,1.2,1.2,1.6,2.1s0.6,2,0.6,3.3l0,12.6H48v1.2c-0.4,0.2-1,0.4-1.6,0.6s-1.3,0.2-1.9,0.2c-0.2,0-0.5,0-0.7,0
			c-0.3,0-0.5-0.1-0.7-0.2c-0.2-0.1-0.4-0.3-0.5-0.6s-0.2-0.6-0.2-1.1v-0.5c-0.3,0.3-0.6,0.7-1,1S40.5,28,40,28.2
			c-0.5,0.2-1.1,0.4-1.7,0.5c-0.6,0.1-1.3,0.2-2.1,0.2c-1,0-1.8-0.2-2.6-0.5s-1.4-0.8-1.9-1.4c-0.5-0.6-0.9-1.2-1.2-2
			S30.2,23.4,30.3,22.6z M33.9,22.7c0,0.7,0.1,1.3,0.3,1.8c0.2,0.5,0.5,0.9,0.8,1.2s0.8,0.5,1.4,0.7c0.5,0.1,1.1,0.2,1.8,0.2
			c0.4,0,0.7,0,1.1-0.1c0.4-0.1,0.7-0.2,1.1-0.4s0.7-0.3,1-0.5c0.3-0.2,0.5-0.4,0.7-0.6c0-1.1,0-2.3,0-3.4s0-2.3,0-3.4
			c-0.5,0-1.1,0-1.7,0.1c-0.6,0.1-1.2,0.1-1.8,0.3c-0.6,0.1-1.2,0.3-1.8,0.5c-0.6,0.2-1.1,0.5-1.5,0.8c-0.4,0.3-0.8,0.7-1,1.2
			C34,21.5,33.9,22.1,33.9,22.7z"/>
		<path fill="#FFFFFF" d="M50.5,32.8c0-0.6,0.1-1.1,0.3-1.6s0.5-1,0.8-1.4c0.3-0.4,0.6-0.8,1-1.1s0.7-0.6,1-0.8
			c-0.5-0.2-1-0.4-1.2-0.7s-0.5-0.5-0.6-0.8c-0.1-0.3-0.2-0.6-0.2-0.9s0-0.6,0-0.8c0-0.2,0-0.5,0.2-0.9c0.1-0.4,0.2-0.7,0.4-1.1
			c0.2-0.4,0.4-0.8,0.7-1.2s0.6-0.8,1-1.1c-0.9-0.5-1.6-1.3-2.2-2.2c-0.5-0.9-0.8-2.1-0.8-3.4c0-1.3,0.2-2.3,0.7-3.3
			s1.1-1.7,1.9-2.3s1.7-1.1,2.7-1.4c1-0.3,2-0.5,3-0.5c1,0,2,0.1,2.9,0.3c0.9,0.2,1.7,0.6,2.4,1.2c0.2-0.3,0.6-0.5,1.1-0.7
			s1.1-0.3,1.9-0.3h2.2v2.8h-3.6c0.3,0.5,0.5,1,0.6,1.6s0.2,1.2,0.2,1.9c0,1.2-0.2,2.3-0.7,3.2s-1.1,1.7-1.8,2.4
			c-0.8,0.6-1.6,1.1-2.6,1.5s-2,0.5-3.1,0.5c-1.4,0-2.7-0.2-3.9-0.7c-0.1,0.2-0.1,0.4-0.2,0.6c0,0.2,0,0.5-0.1,0.7s0,0.4,0,0.6
			s0,0.4,0,0.5c0,0.7,0.2,1.2,0.5,1.5s1,0.6,1.8,0.7c0.5,0,1.2,0.1,2,0.1s1.7,0,2.8,0c1.1,0,2.1,0.1,2.9,0.3c0.8,0.2,1.5,0.4,2,0.7
			c0.5,0.3,0.9,0.6,1.3,1c0.3,0.4,0.5,0.8,0.7,1.2c0.2,0.4,0.3,0.9,0.3,1.3c0,0.4,0.1,0.9,0.1,1.2c0,1.1-0.2,2-0.7,2.9
			c-0.4,0.9-1.1,1.6-1.9,2.2s-1.8,1.1-3,1.4c-1.2,0.3-2.5,0.5-4.1,0.5c-1.1,0-2.2-0.1-3.2-0.3s-2-0.5-2.8-0.9s-1.5-1-2-1.7
			C50.7,34.7,50.5,33.8,50.5,32.8z M53.9,31.6c0,0.8,0.2,1.5,0.5,2.1c0.3,0.6,0.8,1,1.3,1.4c0.5,0.4,1.2,0.6,1.9,0.8
			c0.7,0.2,1.5,0.2,2.3,0.2c1,0,1.9-0.1,2.7-0.2c0.8-0.2,1.5-0.4,2-0.7s1-0.8,1.3-1.3c0.3-0.5,0.4-1.1,0.4-1.8
			c0-0.6-0.1-1.1-0.2-1.6s-0.4-0.9-0.8-1.2c-0.4-0.3-0.9-0.6-1.6-0.7c-0.7-0.2-1.6-0.2-2.8-0.2l-2.3,0c-0.7,0-1.4,0-1.9-0.1
			c-0.6,0-1.1-0.1-1.5-0.2c-0.2,0.2-0.3,0.4-0.4,0.6s-0.2,0.5-0.3,0.7C54.1,29.7,54,30,54,30.4C53.9,30.7,53.9,31.1,53.9,31.6z
			 M59.3,19.5c0.8,0,1.4-0.1,1.9-0.3s1-0.5,1.3-0.9s0.6-1,0.7-1.6c0.2-0.6,0.2-1.4,0.2-2.2c0-1.8-0.4-3.2-1.2-4.1s-2-1.3-3.5-1.3
			c-0.6,0-1.2,0.1-1.7,0.2c-0.5,0.2-1,0.4-1.4,0.8c-0.4,0.4-0.7,0.9-0.9,1.5s-0.3,1.4-0.3,2.3c0,0.8,0.1,1.5,0.3,2.2
			c0.2,0.7,0.5,1.3,0.9,1.8s0.9,0.9,1.5,1.2C57.6,19.4,58.4,19.5,59.3,19.5z"/>
		<path fill="#FFFFFF" d="M71.1,18.3c0-1.6,0.2-3,0.7-4.3s1.2-2.5,2.1-3.4s1.9-1.7,3.2-2.3c1.2-0.6,2.6-0.8,4.1-0.9
			c1.1,0,2.1,0.1,2.9,0.5c0.9,0.3,1.6,0.8,2.2,1.5c0.6,0.7,1.1,1.5,1.4,2.4s0.6,2,0.6,3.2c0,0.8,0,1.4-0.1,2s-0.1,1.1-0.2,1.5H74.6
			c0,0.1,0,0.1,0,0.2s0,0.1,0,0.2c0.1,1.5,0.3,2.7,0.8,3.7s1,1.7,1.7,2.3s1.4,1,2.2,1.2s1.6,0.3,2.4,0.3c0.5,0,1,0,1.5-0.1
			c0.5-0.1,1-0.1,1.5-0.2c0.5-0.1,0.9-0.2,1.4-0.4s0.8-0.3,1-0.4l0.7,1.6c-0.3,0.3-0.8,0.6-1.4,0.9c-0.6,0.3-1.2,0.5-1.9,0.6
			s-1.4,0.3-2.1,0.4s-1.4,0.1-2.2,0.1c-1.5,0-2.8-0.2-3.9-0.8s-2.1-1.2-2.9-2.1c-0.8-0.9-1.4-2-1.8-3.4S71.1,19.9,71.1,18.3z
			 M84.7,16.3c0-0.6,0.1-1.2,0-1.9c0-0.6-0.1-1.2-0.2-1.8s-0.3-1.1-0.6-1.6s-0.7-0.9-1.1-1.1c-0.3-0.2-0.7-0.4-1.1-0.5
			c-0.4-0.1-0.9-0.2-1.4-0.2c-0.7,0-1.3,0.1-2,0.4s-1.2,0.7-1.7,1.2s-0.9,1.3-1.3,2.2c-0.3,0.9-0.6,2-0.7,3.2L84.7,16.3L84.7,16.3z"
			/>
		<path fill="#FFFFFF" d="M91.4,26.9l3-0.4V11.6l-2.6-1.4V9l4.8-1.4L97.5,8v2.8c0.2-0.3,0.6-0.7,1.1-1.1s1-0.7,1.6-1
			c0.6-0.3,1.2-0.6,1.8-0.8s1.2-0.3,1.8-0.3c0.4,0,0.8,0,1.1,0s0.6,0.1,0.7,0.1v3.8c-0.2-0.1-0.4-0.1-0.6-0.2s-0.4-0.1-0.7-0.2
			s-0.5-0.1-0.8-0.1c-0.3,0-0.7-0.1-1.1-0.1c-1,0-1.8,0.1-2.5,0.4s-1.3,0.6-1.8,0.9v14.4l5.2,0.4v1.6H91.4V26.9z"/>
		<path fill="#FFFFFF" d="M108.7,23.2h1.6l0.7,2.2c0.3,0.3,0.6,0.5,0.9,0.7s0.6,0.4,0.9,0.5c0.3,0.1,0.7,0.2,1,0.3
			c0.3,0.1,0.8,0.1,1.2,0.1c0.7,0,1.3,0,1.9-0.2c0.6-0.1,1.1-0.3,1.5-0.6c0.4-0.3,0.7-0.6,1-1.1s0.3-1,0.3-1.6c0-0.5-0.2-1-0.4-1.4
			s-0.7-0.7-1.2-1s-1.1-0.6-1.7-0.9c-0.6-0.3-1.3-0.5-1.9-0.9c-0.7-0.3-1.4-0.7-2.1-1.1s-1.3-0.9-1.8-1.4s-1-1.1-1.3-1.7
			c-0.3-0.6-0.5-1.4-0.5-2.2c0-0.6,0.1-1.2,0.3-1.7s0.5-1,0.9-1.4s0.8-0.8,1.3-1.1s1-0.6,1.5-0.8c0.5-0.2,1.1-0.3,1.7-0.5
			c0.6-0.1,1.1-0.2,1.7-0.2c0.6,0,1.2,0,1.8,0.1c0.6,0.1,1.1,0.2,1.6,0.3c0.5,0.1,0.9,0.3,1.3,0.4c0.4,0.2,0.7,0.3,1,0.5v3.9h-1.6
			l-0.8-2.1c-0.2-0.2-0.4-0.4-0.6-0.5s-0.4-0.3-0.7-0.4c-0.2-0.1-0.5-0.2-0.8-0.3c-0.3-0.1-0.7-0.1-1.1-0.1c-0.6,0-1.1,0.1-1.6,0.2
			s-0.9,0.3-1.3,0.5c-0.4,0.2-0.7,0.6-0.9,0.9s-0.3,0.9-0.3,1.4c0,0.6,0.1,1,0.4,1.4s0.7,0.8,1.2,1.1s1,0.6,1.6,0.9s1.2,0.6,1.9,0.9
			c0.7,0.3,1.3,0.6,2.1,1c0.7,0.3,1.3,0.7,1.9,1.2c0.6,0.5,1,1,1.3,1.6c0.3,0.6,0.5,1.4,0.5,2.2c0,1-0.2,2-0.6,2.7
			c-0.4,0.8-1,1.4-1.7,2c-0.7,0.5-1.6,0.9-2.6,1.2s-2,0.4-3.1,0.4c-1.1,0-2.2-0.1-3.3-0.4c-1.1-0.3-2.1-0.6-3.1-1.2L108.7,23.2
			L108.7,23.2z"/>
		<path fill="#FFFFFF" d="M128.5,23.7c0-2.2,0-4.5,0-6.7s0-4.4,0-6.7h-2.8V8.9c0.5-0.1,1-0.2,1.3-0.3s0.7-0.2,0.9-0.3
			c0.2-0.1,0.4-0.2,0.6-0.4c0.2-0.2,0.3-0.4,0.4-0.7c0.1-0.2,0.2-0.5,0.3-0.9c0.1-0.4,0.2-0.8,0.4-1.2s0.2-0.8,0.3-1.2
			s0.1-0.6,0.2-0.8h1.8V8h6.2v2.3H132v9.2c0,1.4,0,2.6,0.1,3.5s0.1,1.6,0.3,2.1s0.4,0.8,0.6,1s0.7,0.3,1.2,0.3c0.3,0,0.6,0,1-0.1
			c0.4-0.1,0.7-0.1,1.1-0.2s0.7-0.2,1-0.3c0.3-0.1,0.5-0.2,0.7-0.3l0.6,1.6c-0.3,0.3-0.6,0.6-1.1,0.8c-0.5,0.2-1,0.4-1.5,0.6
			s-1.1,0.3-1.6,0.4c-0.5,0.1-1,0.1-1.4,0.1c-1.3,0-2.4-0.4-3.1-1.2C128.9,26.9,128.5,25.5,128.5,23.7z"/>
		<path fill="#FFFFFF" d="M140.2,17.8c0-1.6,0.3-3.1,0.9-4.4s1.3-2.4,2.2-3.3c0.9-0.9,1.9-1.6,3.1-2.1c1.2-0.5,2.4-0.7,3.7-0.7
			c1.6,0,2.9,0.3,4.1,0.8c1.1,0.6,2.1,1.3,2.9,2.3s1.3,2.1,1.7,3.4s0.5,2.7,0.5,4.2c0,1.6-0.3,3.1-0.8,4.5s-1.2,2.5-2.1,3.5
			s-1.9,1.7-3,2.2s-2.4,0.8-3.7,0.8c-1.7,0-3.1-0.3-4.3-0.9s-2.1-1.4-2.9-2.5s-1.3-2.2-1.6-3.5S140.2,19.3,140.2,17.8z M149.6,26.9
			c1,0,1.9-0.1,2.6-0.5s1.3-0.9,1.7-1.7c0.4-0.7,0.8-1.7,1-2.8s0.3-2.4,0.3-3.8c0-1.2-0.1-2.4-0.3-3.5s-0.6-2-1-2.8
			c-0.5-0.8-1-1.4-1.7-1.9s-1.5-0.7-2.5-0.7c-1,0-1.9,0.2-2.6,0.5s-1.3,0.9-1.8,1.6c-0.5,0.7-0.8,1.6-1,2.6s-0.3,2.2-0.3,3.5
			c0,1.2,0.1,2.3,0.4,3.4c0.2,1.1,0.6,2.1,1.1,2.9c0.5,0.9,1.1,1.5,1.8,2C147.8,26.6,148.7,26.9,149.6,26.9z"/>
		<path fill="#FFFFFF" d="M162.1,10.2l-1.9-0.3V8h8v1.9l-2.5,0.4l3.4,11.2l1,4l0.8-4L174.5,8h3.2l3.5,13.5l1.1,4l1-3.8l2.9-11.4
			l-2.3-0.4V8h7.4v1.9l-2.3,0.4L183.5,29h-3.2l-4-14l-0.5-2.7l-0.7,2.7l-3.7,14h-3.1L162.1,10.2z"/>
		<path fill="#FFFFFF" d="M194,26.9l2.5-0.4V11.6l-2.6-1.4V9l4.9-1.4l0.8,0.4v2.6c0.4-0.4,0.9-0.7,1.5-1.1c0.6-0.4,1.2-0.7,1.9-0.9
			c0.7-0.3,1.3-0.5,2-0.7s1.4-0.3,2-0.3c1.1,0,2.1,0.1,2.9,0.4s1.4,0.8,1.9,1.5c0.5,0.7,0.8,1.6,1,2.7c0.2,1.1,0.3,2.4,0.3,4v10.4
			l2.9,0.4v1.6h-9.2v-1.6l2.8-0.4v-9.7c0-1.1-0.1-2.1-0.2-2.9c-0.1-0.8-0.3-1.5-0.6-2.1c-0.3-0.6-0.8-0.9-1.4-1.2
			c-0.6-0.3-1.3-0.4-2.3-0.3c-0.8,0-1.6,0.2-2.4,0.5s-1.7,0.8-2.7,1.4v14.4l2.7,0.4v1.6H194L194,26.9L194,26.9z"/>
	</g>
	<g>
		<path fill="#FFFFFF" d="M80.3,42.4v3.4h-2v-9.5h3.7c0.7,0,1.3,0.1,1.9,0.4s1,0.6,1.2,1.1c0.3,0.5,0.4,1,0.4,1.7
			c0,0.9-0.3,1.7-1,2.2s-1.5,0.8-2.7,0.8H80.3z M80.3,40.8H82c0.5,0,0.9-0.1,1.2-0.4c0.3-0.2,0.4-0.6,0.4-1c0-0.5-0.1-0.8-0.4-1.1
			c-0.3-0.3-0.7-0.4-1.1-0.5h-1.8V40.8z"/>
		<path fill="#FFFFFF" d="M96.8,36.2v6.3c0,1-0.3,1.9-1,2.5s-1.5,0.9-2.7,0.9c-1.1,0-2-0.3-2.7-0.9s-1-1.4-1-2.4v-6.3h2v6.3
			c0,0.6,0.2,1.1,0.4,1.4s0.7,0.4,1.2,0.4c1.1,0,1.7-0.6,1.7-1.7v-6.3L96.8,36.2L96.8,36.2z"/>
		<path fill="#FFFFFF" d="M101.2,45.8v-9.5h3.3c1.2,0,2,0.2,2.6,0.7s0.9,1.1,0.9,2c0,0.5-0.1,0.9-0.4,1.2s-0.6,0.6-1,0.8
			c0.5,0.1,0.9,0.4,1.2,0.7c0.3,0.4,0.4,0.8,0.4,1.4c0,0.9-0.3,1.6-0.9,2.1c-0.6,0.5-1.4,0.7-2.5,0.7L101.2,45.8L101.2,45.8z
			 M103.2,40.2h1.4c1,0,1.5-0.4,1.5-1.2c0-0.4-0.1-0.7-0.4-0.9s-0.7-0.3-1.2-0.3h-1.4L103.2,40.2L103.2,40.2z M103.2,41.6v2.6h1.7
			c0.5,0,0.8-0.1,1.1-0.3s0.4-0.5,0.4-0.9c0-0.9-0.4-1.3-1.4-1.3C105,41.6,103.2,41.6,103.2,41.6z"/>
		<path fill="#FFFFFF" d="M114.4,44.2h4.2v1.6h-6.1v-9.5h2L114.4,44.2L114.4,44.2z"/>
		<path fill="#FFFFFF" d="M124.4,45.8h-2v-9.5h2V45.8z"/>
		<path fill="#FFFFFF" d="M136.4,42.6c-0.1,1-0.4,1.8-1.1,2.4c-0.7,0.6-1.6,0.9-2.7,0.9c-1.2,0-2.2-0.4-2.9-1.2
			c-0.7-0.8-1.1-2-1.1-3.4v-0.6c0-0.9,0.2-1.7,0.5-2.4s0.8-1.2,1.4-1.6c0.6-0.4,1.3-0.6,2.1-0.6c1.1,0,2,0.3,2.7,0.9
			s1.1,1.4,1.2,2.5h-2c-0.1-0.6-0.2-1.1-0.5-1.3s-0.7-0.4-1.4-0.4c-0.6,0-1.1,0.2-1.5,0.7s-0.5,1.2-0.5,2.2v0.7c0,1,0.2,1.8,0.5,2.3
			s0.8,0.7,1.5,0.7c0.6,0,1.1-0.1,1.4-0.4s0.5-0.7,0.5-1.3L136.4,42.6L136.4,42.6z"/>
		<path fill="#FFFFFF" d="M148.4,44.2h4.2v1.6h-6.1v-9.5h2L148.4,44.2L148.4,44.2z"/>
		<path fill="#FFFFFF" d="M158.4,45.8h-2v-9.5h2V45.8z"/>
		<path fill="#FFFFFF" d="M162.9,45.8v-9.5h3.3c1.2,0,2,0.2,2.6,0.7s0.9,1.1,0.9,2c0,0.5-0.1,0.9-0.4,1.2c-0.2,0.4-0.6,0.6-1,0.8
			c0.5,0.1,0.9,0.4,1.2,0.7c0.3,0.4,0.4,0.8,0.4,1.4c0,0.9-0.3,1.6-0.9,2.1s-1.4,0.7-2.5,0.7L162.9,45.8L162.9,45.8z M164.9,40.2
			h1.4c1,0,1.5-0.4,1.5-1.2c0-0.4-0.1-0.7-0.4-0.9s-0.6-0.3-1.2-0.3h-1.4L164.9,40.2L164.9,40.2z M164.9,41.6v2.6h1.7
			c0.5,0,0.8-0.1,1.1-0.3s0.4-0.5,0.4-0.9c0-0.9-0.4-1.3-1.4-1.3C166.7,41.6,164.9,41.6,164.9,41.6z"/>
		<path fill="#FFFFFF" d="M177.7,42.3h-1.6v3.5h-2v-9.5h3.5c1.1,0,2,0.2,2.6,0.8c0.6,0.5,0.9,1.2,0.9,2.1c0,0.7-0.1,1.2-0.4,1.6
			c-0.3,0.4-0.7,0.8-1.3,1l2.1,3.9v0.1h-2.1L177.7,42.3z M176.1,40.7h1.6c0.5,0,0.9-0.1,1.1-0.4s0.4-0.6,0.4-1
			c0-0.5-0.1-0.8-0.4-1.1c-0.3-0.3-0.6-0.4-1.2-0.4h-1.6V40.7z"/>
		<path fill="#FFFFFF" d="M191.2,43.8h-3.4l-0.6,2H185l3.6-9.5h1.8l3.6,9.5h-2.1L191.2,43.8z M188.3,42.2h2.4l-1.2-3.6L188.3,42.2z"
			/>
		<path fill="#FFFFFF" d="M201.1,42.3h-1.6v3.5h-2v-9.5h3.5c1.1,0,2,0.2,2.6,0.8c0.6,0.5,0.9,1.2,0.9,2.1c0,0.7-0.1,1.2-0.4,1.6
			c-0.3,0.4-0.7,0.8-1.3,1l2.1,3.9v0.1h-2.1L201.1,42.3z M199.6,40.7h1.6c0.5,0,0.9-0.1,1.1-0.4s0.4-0.6,0.4-1
			c0-0.5-0.1-0.8-0.4-1.1c-0.3-0.3-0.6-0.4-1.2-0.4h-1.6V40.7z"/>
		<path fill="#FFFFFF" d="M211.9,40.5l2-4.3h2.2l-3.1,6.1v3.5h-2v-3.5l-3.1-6.1h2.1L211.9,40.5z"/>
	</g>
</g>
</svg>
