<?xml version="1.0" encoding="utf-8"?>
<!-- Generator: Adobe Illustrator 24.0.0, SVG Export Plug-In . SVG Version: 6.00 Build 0)  -->
<svg version="1.2" baseProfile="tiny" id="Layer_1" xmlns="http://www.w3.org/2000/svg" xmlns:xlink="http://www.w3.org/1999/xlink"
	 x="0px" y="0px" viewBox="0 0 216 45.9" xml:space="preserve">
<g>
	<g>
		<path fill="#1F7099" d="M0,26.93l3.1-0.55V2.13L0.07,1.8V0h9.59v1.8L6.68,2.11v11.45h14.07V2.11L17.72,1.8V0h9.54v1.8l-2.95,0.31
			v24.27l3.16,0.55v1.56h-9.87v-1.56l3.16-0.53V15.72H6.68v10.66l3.16,0.55v1.56H0V26.93z"/>
		<path fill="#1F7099" d="M30.3,22.58c0.09-0.86,0.36-1.61,0.83-2.25c0.46-0.64,1.04-1.2,1.72-1.66c0.68-0.46,1.45-0.85,2.28-1.16
			s1.68-0.55,2.52-0.73s1.66-0.31,2.44-0.39c0.78-0.07,1.46-0.11,2.04-0.11v-1.6c0-0.97-0.13-1.75-0.39-2.36
			c-0.26-0.61-0.61-1.08-1.06-1.42c-0.45-0.34-0.98-0.57-1.6-0.7c-0.61-0.12-1.27-0.18-1.98-0.18c-0.35,0-0.75,0.03-1.19,0.1
			c-0.44,0.07-0.9,0.16-1.37,0.28c-0.47,0.12-0.94,0.27-1.42,0.44s-0.93,0.36-1.36,0.57l-0.68-1.65c0.45-0.37,1.01-0.69,1.66-0.96
			c0.65-0.28,1.33-0.5,2.02-0.69c0.69-0.18,1.36-0.32,2.02-0.4c0.65-0.09,1.21-0.13,1.68-0.13c0.97,0,1.89,0.1,2.76,0.3
			s1.64,0.56,2.3,1.06c0.66,0.51,1.18,1.19,1.57,2.05s0.58,1.96,0.58,3.29l-0.04,12.62h2.35v1.21c-0.43,0.23-0.96,0.42-1.59,0.57
			c-0.63,0.15-1.26,0.22-1.9,0.22c-0.22,0-0.46-0.02-0.72-0.05c-0.26-0.03-0.49-0.11-0.71-0.23c-0.21-0.12-0.39-0.31-0.53-0.57
			c-0.14-0.26-0.21-0.61-0.21-1.06v-0.51c-0.28,0.34-0.61,0.66-1,0.95c-0.39,0.29-0.83,0.55-1.32,0.77
			c-0.5,0.22-1.06,0.39-1.69,0.51c-0.63,0.12-1.33,0.18-2.1,0.18c-0.95,0-1.82-0.17-2.6-0.51s-1.42-0.8-1.94-1.39
			c-0.52-0.58-0.91-1.25-1.16-2.02S30.2,23.44,30.3,22.58z M33.86,22.66c0,0.72,0.1,1.33,0.29,1.83c0.2,0.5,0.48,0.91,0.85,1.22
			s0.83,0.54,1.37,0.68c0.54,0.14,1.14,0.21,1.82,0.21c0.37,0,0.74-0.05,1.12-0.15c0.38-0.1,0.74-0.22,1.09-0.37s0.67-0.31,0.97-0.5
			c0.3-0.19,0.54-0.38,0.72-0.56c0-1.15,0-2.29,0.01-3.42s0.02-2.27,0.03-3.42c-0.51,0-1.08,0.03-1.69,0.08
			c-0.61,0.06-1.22,0.15-1.83,0.28c-0.61,0.13-1.2,0.31-1.78,0.53c-0.57,0.22-1.08,0.5-1.52,0.83c-0.44,0.34-0.79,0.73-1.05,1.18
			C33.99,21.55,33.86,22.07,33.86,22.66z"/>
		<path fill="#1F7099" d="M50.47,32.76c0-0.56,0.1-1.1,0.3-1.61c0.2-0.51,0.46-0.98,0.76-1.41c0.31-0.43,0.64-0.81,1-1.15
			s0.71-0.61,1.04-0.82c-0.55-0.2-0.97-0.42-1.25-0.68c-0.28-0.26-0.48-0.53-0.6-0.81c-0.12-0.28-0.18-0.57-0.19-0.86
			c-0.01-0.29-0.02-0.57-0.02-0.83c0-0.22,0.05-0.51,0.15-0.86c0.1-0.35,0.24-0.73,0.43-1.14c0.19-0.4,0.43-0.81,0.72-1.23
			c0.29-0.42,0.61-0.79,0.98-1.12c-0.92-0.55-1.64-1.29-2.17-2.21c-0.53-0.92-0.8-2.05-0.8-3.38c0-1.26,0.24-2.35,0.72-3.28
			c0.48-0.93,1.12-1.7,1.91-2.31c0.79-0.61,1.68-1.07,2.69-1.38c1-0.31,2.02-0.47,3.05-0.5c1.04-0.02,2.01,0.08,2.93,0.32
			c0.91,0.24,1.72,0.62,2.41,1.15c0.24-0.28,0.6-0.51,1.07-0.69c0.47-0.18,1.1-0.27,1.88-0.27h2.22v2.77h-3.6
			c0.26,0.46,0.46,0.99,0.6,1.58c0.14,0.59,0.21,1.23,0.21,1.93c0,1.21-0.22,2.28-0.67,3.22s-1.05,1.72-1.8,2.36
			c-0.75,0.64-1.62,1.12-2.6,1.45c-0.98,0.33-2.01,0.5-3.09,0.5c-1.44,0-2.73-0.23-3.87-0.68c-0.07,0.2-0.13,0.41-0.16,0.63
			c-0.03,0.23-0.05,0.45-0.06,0.66s-0.01,0.42,0,0.61s0.01,0.35,0.01,0.47c0,0.66,0.17,1.17,0.52,1.54s0.96,0.59,1.83,0.66
			c0.55,0.05,1.21,0.08,1.98,0.08s1.69,0.01,2.75,0.01c1.14,0,2.11,0.09,2.92,0.27c0.81,0.18,1.48,0.41,2.01,0.71
			c0.53,0.29,0.95,0.64,1.26,1.03c0.31,0.39,0.54,0.8,0.7,1.23c0.16,0.43,0.26,0.86,0.29,1.29c0.04,0.43,0.06,0.85,0.06,1.24
			c0,1.05-0.22,2.01-0.66,2.86c-0.44,0.86-1.07,1.59-1.9,2.2c-0.83,0.61-1.83,1.09-3.03,1.42c-1.19,0.34-2.55,0.5-4.06,0.5
			c-1.1,0-2.18-0.09-3.24-0.26c-1.06-0.17-2-0.47-2.83-0.89s-1.5-0.98-2.02-1.69C50.72,34.69,50.47,33.82,50.47,32.76z M53.88,31.59
			c0,0.83,0.16,1.54,0.48,2.12c0.32,0.58,0.75,1.05,1.28,1.41c0.54,0.36,1.16,0.62,1.87,0.79c0.71,0.17,1.46,0.25,2.26,0.25
			c0.99,0,1.88-0.08,2.67-0.25c0.79-0.17,1.46-0.41,2.01-0.74c0.55-0.33,0.97-0.75,1.27-1.26c0.29-0.51,0.44-1.1,0.44-1.79
			c0-0.59-0.07-1.11-0.2-1.57c-0.13-0.46-0.4-0.85-0.79-1.16c-0.39-0.32-0.94-0.56-1.64-0.72c-0.7-0.17-1.62-0.25-2.76-0.25
			l-2.31-0.04c-0.72,0-1.37-0.02-1.94-0.06c-0.57-0.04-1.08-0.1-1.53-0.17c-0.15,0.17-0.28,0.36-0.41,0.58s-0.24,0.46-0.35,0.73
			c-0.1,0.28-0.19,0.59-0.25,0.94C53.91,30.74,53.88,31.14,53.88,31.59z M59.27,19.54c0.76,0,1.4-0.1,1.93-0.31s0.95-0.52,1.27-0.94
			s0.56-0.95,0.71-1.58c0.15-0.63,0.22-1.37,0.22-2.21c0-1.82-0.39-3.17-1.17-4.05c-0.78-0.88-1.96-1.32-3.52-1.32
			c-0.61,0-1.18,0.08-1.72,0.24c-0.53,0.16-1,0.42-1.39,0.8c-0.4,0.37-0.71,0.87-0.94,1.49c-0.23,0.62-0.34,1.39-0.34,2.32
			c0,0.76,0.09,1.48,0.28,2.16c0.18,0.68,0.47,1.27,0.87,1.78s0.91,0.91,1.54,1.2C57.64,19.39,58.39,19.54,59.27,19.54z"/>
		<path fill="#1F7099" d="M71.08,18.29c0-1.57,0.25-3.01,0.74-4.33s1.19-2.46,2.07-3.43s1.95-1.73,3.2-2.28
			c1.25-0.56,2.62-0.85,4.13-0.89c1.08-0.02,2.05,0.13,2.92,0.47c0.87,0.34,1.61,0.83,2.22,1.5c0.61,0.66,1.09,1.47,1.44,2.42
			s0.55,2.04,0.6,3.25c0.02,0.77,0.01,1.44-0.05,2s-0.11,1.06-0.17,1.5H74.59c0,0.07,0,0.14,0,0.21s0.01,0.14,0.02,0.21
			c0.05,1.48,0.3,2.7,0.75,3.67c0.45,0.97,1.02,1.73,1.7,2.3c0.68,0.57,1.43,0.97,2.25,1.19s1.62,0.34,2.4,0.34
			c0.48,0,0.98-0.03,1.5-0.08c0.53-0.06,1.04-0.13,1.53-0.24c0.5-0.1,0.95-0.22,1.38-0.36s0.76-0.28,1.02-0.42l0.68,1.56
			c-0.35,0.32-0.82,0.61-1.39,0.86c-0.57,0.26-1.19,0.47-1.86,0.65s-1.38,0.31-2.11,0.4c-0.73,0.09-1.45,0.14-2.15,0.14
			c-1.48,0-2.79-0.25-3.93-0.76c-1.14-0.51-2.11-1.22-2.89-2.15c-0.78-0.92-1.38-2.04-1.79-3.35S71.08,19.9,71.08,18.29z
			 M84.66,16.33c0.04-0.62,0.05-1.25,0.03-1.88c-0.02-0.63-0.09-1.23-0.23-1.8s-0.34-1.09-0.61-1.56s-0.65-0.85-1.11-1.15
			c-0.32-0.21-0.68-0.36-1.08-0.47c-0.4-0.1-0.86-0.16-1.38-0.16c-0.68,0-1.35,0.13-1.99,0.39c-0.64,0.26-1.22,0.67-1.72,1.23
			s-0.93,1.29-1.27,2.17c-0.34,0.89-0.56,1.96-0.66,3.22H84.66z"/>
		<path fill="#1F7099" d="M91.42,26.93l2.97-0.39V11.61l-2.6-1.43V9.04l4.84-1.45l0.86,0.37v2.83c0.23-0.34,0.58-0.7,1.05-1.08
			s1-0.72,1.59-1.04c0.59-0.31,1.2-0.57,1.83-0.77s1.24-0.3,1.8-0.3c0.4,0,0.77,0.01,1.09,0.03s0.55,0.05,0.69,0.1v3.76
			c-0.2-0.07-0.4-0.15-0.61-0.23s-0.44-0.15-0.69-0.2s-0.54-0.1-0.85-0.14c-0.32-0.04-0.68-0.06-1.1-0.06
			c-0.99,0-1.82,0.13-2.49,0.38s-1.29,0.55-1.85,0.91v14.35l5.23,0.44v1.56H91.42V26.93z"/>
		<path fill="#1F7099" d="M108.7,23.17h1.63l0.72,2.24c0.31,0.26,0.61,0.48,0.91,0.67s0.61,0.35,0.92,0.47
			c0.31,0.12,0.65,0.22,1,0.28c0.35,0.07,0.75,0.11,1.17,0.12c0.68,0.02,1.31-0.03,1.89-0.16c0.57-0.13,1.07-0.34,1.49-0.62
			c0.42-0.29,0.74-0.65,0.97-1.09c0.23-0.44,0.35-0.97,0.35-1.58c0-0.55-0.15-1.02-0.45-1.41s-0.69-0.74-1.18-1.05
			c-0.49-0.31-1.05-0.6-1.67-0.86c-0.62-0.26-1.26-0.55-1.91-0.87c-0.72-0.34-1.43-0.72-2.12-1.13c-0.69-0.41-1.3-0.87-1.83-1.38
			s-0.96-1.08-1.27-1.72c-0.32-0.64-0.47-1.36-0.46-2.18c0.01-0.64,0.13-1.21,0.34-1.72c0.21-0.51,0.5-0.97,0.86-1.38
			s0.78-0.76,1.26-1.05s0.98-0.55,1.52-0.75c0.54-0.2,1.09-0.35,1.66-0.46c0.57-0.1,1.13-0.16,1.68-0.17
			c0.61-0.01,1.2,0.02,1.77,0.08c0.57,0.07,1.1,0.16,1.6,0.28c0.5,0.12,0.94,0.26,1.34,0.42c0.4,0.16,0.74,0.32,1.02,0.48v3.93
			h-1.56l-0.79-2.05c-0.17-0.18-0.36-0.35-0.56-0.5c-0.2-0.15-0.43-0.29-0.68-0.4c-0.25-0.12-0.54-0.21-0.85-0.28
			c-0.32-0.07-0.68-0.11-1.08-0.11c-0.59,0-1.13,0.06-1.62,0.17s-0.93,0.3-1.29,0.54c-0.37,0.24-0.66,0.56-0.87,0.95
			s-0.33,0.86-0.34,1.41c-0.02,0.55,0.11,1.03,0.4,1.44c0.29,0.41,0.68,0.78,1.16,1.11c0.48,0.33,1.02,0.64,1.64,0.93
			c0.62,0.29,1.25,0.59,1.9,0.91c0.67,0.32,1.35,0.65,2.05,0.98c0.69,0.34,1.31,0.73,1.86,1.19c0.55,0.46,1,1,1.35,1.61
			c0.35,0.62,0.52,1.35,0.52,2.21c0,1.04-0.21,1.95-0.62,2.73c-0.42,0.78-0.99,1.44-1.72,1.96c-0.73,0.53-1.58,0.92-2.55,1.18
			c-0.97,0.26-2.01,0.39-3.13,0.39c-1.11,0-2.23-0.13-3.34-0.39c-1.11-0.26-2.13-0.65-3.06-1.16V23.17z"/>
		<path fill="#1F7099" d="M128.53,23.68c0-2.25,0-4.49,0.01-6.7s0.01-4.45,0.01-6.7h-2.81V8.9c0.54-0.13,0.99-0.24,1.35-0.32
			s0.66-0.17,0.9-0.28c0.24-0.1,0.44-0.24,0.6-0.39c0.16-0.16,0.31-0.39,0.44-0.7c0.09-0.21,0.19-0.51,0.32-0.92
			c0.13-0.4,0.25-0.82,0.37-1.24s0.22-0.82,0.3-1.19s0.14-0.64,0.17-0.8h1.82v4.9h6.16v2.31h-6.16v9.25c0,1.42,0.02,2.57,0.06,3.46
			c0.04,0.89,0.13,1.58,0.28,2.08c0.15,0.5,0.36,0.84,0.64,1.02c0.28,0.18,0.67,0.27,1.17,0.27c0.31,0,0.65-0.03,1.02-0.09
			c0.37-0.06,0.73-0.13,1.08-0.22c0.35-0.09,0.67-0.18,0.96-0.28c0.29-0.1,0.51-0.2,0.66-0.3l0.57,1.61
			c-0.28,0.31-0.65,0.57-1.12,0.81c-0.46,0.23-0.97,0.43-1.51,0.59c-0.54,0.16-1.09,0.28-1.63,0.36c-0.54,0.08-1.02,0.12-1.44,0.12
			c-1.33,0-2.37-0.41-3.1-1.23C128.89,26.88,128.53,25.54,128.53,23.68z"/>
		<path fill="#1F7099" d="M140.19,17.81c0.02-1.64,0.31-3.1,0.85-4.39s1.26-2.38,2.16-3.27c0.89-0.89,1.92-1.58,3.09-2.05
			c1.17-0.48,2.39-0.72,3.66-0.73c1.55-0.01,2.9,0.26,4.05,0.81c1.15,0.55,2.1,1.31,2.85,2.27s1.31,2.09,1.68,3.38
			s0.54,2.68,0.53,4.16c-0.01,1.63-0.27,3.11-0.78,4.46s-1.19,2.5-2.05,3.46s-1.87,1.71-3.03,2.24c-1.16,0.53-2.39,0.8-3.71,0.8
			c-1.69,0-3.12-0.31-4.31-0.92c-1.19-0.61-2.15-1.43-2.9-2.46s-1.29-2.21-1.62-3.55S140.16,19.27,140.19,17.81z M149.65,26.87
			c1.04,0.02,1.92-0.15,2.63-0.53s1.3-0.94,1.74-1.68c0.45-0.74,0.77-1.66,0.97-2.75s0.3-2.35,0.3-3.77c0-1.24-0.11-2.39-0.32-3.46
			s-0.55-2-1.01-2.8c-0.46-0.79-1.04-1.42-1.74-1.88s-1.54-0.7-2.5-0.72c-1.04-0.01-1.92,0.17-2.65,0.54
			c-0.73,0.37-1.32,0.92-1.79,1.64c-0.46,0.72-0.8,1.6-1.02,2.64s-0.32,2.22-0.32,3.54c0,1.19,0.12,2.33,0.35,3.43
			c0.23,1.1,0.58,2.08,1.05,2.93c0.46,0.85,1.05,1.53,1.77,2.05C147.83,26.58,148.67,26.85,149.65,26.87z"/>
		<path fill="#1F7099" d="M162.14,10.24l-1.87-0.33V7.96h8v1.94l-2.53,0.39l3.45,11.19l0.99,3.98L171,21.5l3.49-13.54h3.16
			l3.54,13.52l1.05,3.98l1.01-3.83l2.86-11.37l-2.27-0.35V7.96h7.41v1.93l-2.29,0.42l-5.47,18.64h-3.23l-3.96-13.98l-0.48-2.73
			l-0.7,2.73l-3.69,13.98h-3.05L162.14,10.24z"/>
		<path fill="#1F7099" d="M193.99,26.93l2.49-0.37V11.61l-2.6-1.43V9.04l4.88-1.45l0.83,0.37v2.62c0.42-0.35,0.92-0.71,1.5-1.05
			c0.59-0.35,1.21-0.66,1.87-0.94c0.66-0.28,1.34-0.51,2.04-0.69s1.36-0.28,1.98-0.3c1.14-0.04,2.09,0.1,2.86,0.41
			c0.77,0.31,1.39,0.82,1.87,1.52c0.48,0.7,0.82,1.61,1.03,2.71c0.21,1.1,0.31,2.42,0.31,3.96v10.36l2.95,0.37v1.56h-9.25v-1.56
			l2.77-0.39v-9.7c0-1.11-0.06-2.09-0.16-2.94c-0.11-0.84-0.33-1.54-0.65-2.09c-0.32-0.55-0.77-0.95-1.35-1.21
			c-0.57-0.26-1.33-0.37-2.26-0.33c-0.76,0.04-1.56,0.2-2.4,0.5c-0.84,0.3-1.73,0.77-2.66,1.4v14.36l2.73,0.39v1.56h-8.79V26.93z"/>
	</g>
	<g>
		<path fill="#757679" d="M80.29,42.41v3.36h-1.96v-9.54h3.72c0.72,0,1.35,0.13,1.89,0.39s0.96,0.63,1.25,1.12
			c0.29,0.48,0.44,1.03,0.44,1.65c0,0.93-0.32,1.67-0.96,2.21c-0.64,0.54-1.52,0.81-2.66,0.81H80.29z M80.29,40.82h1.75
			c0.52,0,0.92-0.12,1.19-0.37c0.27-0.24,0.41-0.59,0.41-1.05c0-0.47-0.14-0.84-0.41-1.13c-0.28-0.29-0.65-0.44-1.14-0.45h-1.8
			V40.82z"/>
		<path fill="#757679" d="M96.78,36.23v6.28c0,1.04-0.33,1.87-0.98,2.48c-0.65,0.61-1.54,0.91-2.67,0.91c-1.11,0-2-0.29-2.65-0.88
			c-0.65-0.59-0.99-1.4-1-2.43v-6.35h1.96v6.29c0,0.62,0.15,1.08,0.45,1.37s0.71,0.43,1.24,0.43c1.1,0,1.67-0.58,1.68-1.74v-6.35
			H96.78z"/>
		<path fill="#757679" d="M101.21,45.77v-9.54h3.34c1.16,0,2.03,0.22,2.63,0.66c0.6,0.44,0.9,1.09,0.9,1.95
			c0,0.47-0.12,0.88-0.36,1.23s-0.57,0.62-1,0.78c0.49,0.12,0.87,0.37,1.16,0.74c0.28,0.37,0.42,0.83,0.42,1.36
			c0,0.92-0.29,1.61-0.88,2.08c-0.58,0.47-1.42,0.71-2.5,0.72H101.21z M103.17,40.23h1.45c0.99-0.02,1.49-0.41,1.49-1.19
			c0-0.43-0.13-0.74-0.38-0.93c-0.25-0.19-0.65-0.28-1.19-0.28h-1.38V40.23z M103.17,41.62v2.57h1.68c0.46,0,0.82-0.11,1.08-0.33
			c0.26-0.22,0.39-0.53,0.39-0.91c0-0.87-0.45-1.32-1.36-1.33H103.17z"/>
		<path fill="#757679" d="M114.44,44.19h4.17v1.58h-6.14v-9.54h1.96V44.19z"/>
		<path fill="#757679" d="M124.42,45.77h-1.96v-9.54h1.96V45.77z"/>
		<path fill="#757679" d="M136.42,42.59c-0.07,1.03-0.45,1.83-1.14,2.42c-0.68,0.59-1.58,0.88-2.7,0.88c-1.22,0-2.18-0.41-2.88-1.23
			c-0.7-0.82-1.05-1.95-1.05-3.39v-0.58c0-0.92,0.16-1.72,0.48-2.42s0.78-1.23,1.38-1.61c0.6-0.37,1.3-0.56,2.09-0.56
			c1.1,0,1.99,0.29,2.66,0.88c0.67,0.59,1.06,1.42,1.17,2.48h-1.96c-0.05-0.62-0.22-1.06-0.51-1.34c-0.29-0.28-0.74-0.42-1.35-0.42
			c-0.65,0-1.14,0.23-1.47,0.7c-0.33,0.47-0.49,1.2-0.5,2.18v0.72c0,1.03,0.16,1.78,0.47,2.26c0.31,0.48,0.8,0.71,1.48,0.71
			c0.61,0,1.06-0.14,1.36-0.42c0.3-0.28,0.47-0.71,0.51-1.29H136.42z"/>
		<path fill="#757679" d="M148.38,44.19h4.17v1.58h-6.14v-9.54h1.96V44.19z"/>
		<path fill="#757679" d="M158.36,45.77h-1.96v-9.54h1.96V45.77z"/>
		<path fill="#757679" d="M162.91,45.77v-9.54h3.34c1.16,0,2.03,0.22,2.63,0.66c0.6,0.44,0.9,1.09,0.9,1.95
			c0,0.47-0.12,0.88-0.36,1.23c-0.24,0.36-0.57,0.62-1,0.78c0.49,0.12,0.87,0.37,1.16,0.74c0.28,0.37,0.42,0.83,0.42,1.36
			c0,0.92-0.29,1.61-0.88,2.08s-1.42,0.71-2.5,0.72H162.91z M164.88,40.23h1.45c0.99-0.02,1.49-0.41,1.49-1.19
			c0-0.43-0.13-0.74-0.38-0.93c-0.25-0.19-0.65-0.28-1.19-0.28h-1.38V40.23z M164.88,41.62v2.57h1.68c0.46,0,0.82-0.11,1.08-0.33
			s0.39-0.53,0.39-0.91c0-0.87-0.45-1.32-1.36-1.33H164.88z"/>
		<path fill="#757679" d="M177.71,42.28h-1.56v3.49h-1.96v-9.54h3.54c1.13,0,1.99,0.25,2.61,0.75c0.61,0.5,0.92,1.21,0.92,2.13
			c0,0.65-0.14,1.19-0.42,1.63c-0.28,0.43-0.71,0.78-1.28,1.04l2.06,3.9v0.09h-2.11L177.71,42.28z M176.14,40.69h1.58
			c0.49,0,0.88-0.13,1.15-0.38s0.41-0.6,0.41-1.04c0-0.45-0.13-0.8-0.38-1.06c-0.26-0.26-0.65-0.39-1.18-0.39h-1.58V40.69z"/>
		<path fill="#757679" d="M191.18,43.8h-3.44l-0.65,1.96h-2.09l3.55-9.54h1.82l3.57,9.54h-2.09L191.18,43.8z M188.27,42.21h2.38
			l-1.2-3.57L188.27,42.21z"/>
		<path fill="#757679" d="M201.13,42.28h-1.56v3.49h-1.96v-9.54h3.54c1.13,0,1.99,0.25,2.61,0.75c0.61,0.5,0.92,1.21,0.92,2.13
			c0,0.65-0.14,1.19-0.42,1.63c-0.28,0.43-0.71,0.78-1.28,1.04l2.06,3.9v0.09h-2.11L201.13,42.28z M199.56,40.69h1.58
			c0.49,0,0.88-0.13,1.15-0.38s0.41-0.6,0.41-1.04c0-0.45-0.13-0.8-0.38-1.06c-0.26-0.26-0.65-0.39-1.18-0.39h-1.58V40.69z"/>
		<path fill="#757679" d="M211.87,40.53l1.98-4.3H216l-3.13,6.08v3.46h-2v-3.46l-3.13-6.08h2.15L211.87,40.53z"/>
	</g>
</g>
</svg>
