<?xml version="1.0" encoding="utf-8"?>
<!-- Generator: Adobe Illustrator 24.0.0, SVG Export Plug-In . SVG Version: 6.00 Build 0)  -->
<svg version="1.2" baseProfile="tiny"
	 id="Layer_1" xmlns:cc="http://creativecommons.org/ns#" xmlns:dc="http://purl.org/dc/elements/1.1/" xmlns:rdf="http://www.w3.org/1999/02/22-rdf-syntax-ns#"
	 xmlns="http://www.w3.org/2000/svg" xmlns:xlink="http://www.w3.org/1999/xlink" x="0px" y="0px" viewBox="0 0 72 72"
	 xml:space="preserve">
<path fill="#FFFFFF" d="M64.8,21.2c0,0.6,0,1.3,0,1.9c0,19.5-14.9,42.1-42.1,42.1l0,0c-8.3,0-16.2-2.4-22.7-6.6
	c1.1,0.2,2.4,0.2,3.5,0.2c6.9,0,13.3-2.4,18.4-6.4c-6.4-0.2-11.8-4.3-13.8-10.2c1,0.2,1.8,0.3,2.7,0.3c1.3,0,2.7-0.2,3.8-0.5
	C8,40.7,2.9,34.6,2.9,27.4v-0.2c1.9,1.1,4.3,1.8,6.7,1.9C5.6,26.5,3,22,3,16.9c0-2.7,0.8-5.3,2.1-7.4c7.4,9,18.2,14.9,30.4,15.4
	c-0.3-1.1-0.3-2.2-0.3-3.4c0-8.2,6.6-14.7,14.7-14.7c4.3,0,8.2,1.8,10.7,4.6c3.4-0.6,6.6-1.9,9.4-3.5c-1.1,3.5-3.5,6.4-6.6,8.2
	c3-0.3,5.8-1.1,8.5-2.4C70.2,16.4,67.7,19.1,64.8,21.2z"/>
</svg>
