<?xml version="1.0" encoding="utf-8"?>
<!-- Generator: Adobe Illustrator 24.0.0, SVG Export Plug-In . SVG Version: 6.00 Build 0)  -->
<svg version="1.2" baseProfile="tiny"
	 id="Layer_1" xmlns:cc="http://creativecommons.org/ns#" xmlns:dc="http://purl.org/dc/elements/1.1/" xmlns:rdf="http://www.w3.org/1999/02/22-rdf-syntax-ns#"
	 xmlns="http://www.w3.org/2000/svg" xmlns:xlink="http://www.w3.org/1999/xlink" x="0px" y="0px" viewBox="0 0 72 72"
	 xml:space="preserve">
<path fill="#FFFFFF" d="M70.5,18.7c-0.8-3.1-3.3-5.5-6.4-6.4C58.5,10.8,36,10.8,36,10.8s-22.5,0-28.1,1.5c-3.1,0.8-5.5,3.3-6.4,6.4
	C0,24.3,0,36,0,36s0,11.7,1.5,17.3c0.8,3.1,3.3,5.5,6.4,6.4c5.6,1.5,28.1,1.5,28.1,1.5s22.5,0,28.1-1.5c3.1-0.8,5.5-3.3,6.4-6.4
	C72,47.7,72,36,72,36S72,24.3,70.5,18.7z M28.8,46.8V25.2L47.5,36L28.8,46.8z"/>
</svg>
